<svg height="512pt" viewBox="0 0 512 512" width="512pt" xmlns="http://www.w3.org/2000/svg"><path d="m317 0c-107.523438 0-195 87.476562-195 195 0 48.375 17.714844 92.683594 46.984375 126.804688l-19.777344 19.777343-21.214843-21.214843-127.992188 127.992187 63.640625 63.640625 127.992187-127.992188-21.214843-21.214843 19.777343-19.777344c34.121094 29.273437 78.429688 46.984375 126.804688 46.984375 107.523438 0 195-87.476562 195-195s-87.476562-195-195-195zm-253.359375 469.574219-21.214844-21.214844 85.566407-85.566406 21.210937 21.214843zm253.359375-109.574219c-90.980469 0-165-74.019531-165-165s74.019531-165 165-165 165 74.019531 165 165-74.019531 165-165 165zm0 0"/><path d="m227 90v210h180v-141.214844l-68.785156-68.785156zm120 51.214844 8.785156 8.785156h-8.785156zm-90 128.785156v-150h60v60h60v90zm0 0"/></svg>